<svg height="375" width="375" xmlns="http://www.w3.org/2000/svg">
<style>
svg { background-color: #ffffff00; } text { text-anchor: middle; dominant-baseline: central; } rect.piece { width: 75px; height: 75px; rx: 0px; ry: 0px; stroke-width: 0px; } rect.sub { width: 52.5px; height: 7.5px; } text { font-family: sans-serif; font-size: 30px; }
</style>
<g>
<rect class="piece" fill="#ff6868ff" x="0" y="0"/>
<text fill="#000000ff" x="37.5" y="37.5">
2
</text>
</g>
<g>
<rect class="piece" fill="#ff6868ff" x="75" y="0"/>
<text fill="#000000ff" x="112.5" y="37.5">
4
</text>
</g>
<g>
<rect class="piece" fill="#77ffb3ff" x="150" y="0"/>
<text fill="#000000ff" x="187.5" y="37.5">
13
</text>
</g>
<g>
<rect class="piece" fill="#7fff65ff" x="225" y="0"/>
<text fill="#000000ff" x="262.5" y="37.5">
17
</text>
</g>
<g>
<rect class="piece" fill="#daff57ff" x="300" y="0"/>
<text fill="#000000ff" x="337.5" y="37.5">
9
</text>
</g>
<g>
<rect class="piece" fill="#daff57ff" x="0" y="75"/>
<text fill="#000000ff" x="37.5" y="112.5">
8
</text>
</g>
<g>
<rect class="piece" fill="#ff6868ff" x="75" y="75"/>
<text fill="#000000ff" x="112.5" y="112.5">
5
</text>
</g>
<g>
<rect class="piece" fill="#ff6868ff" x="150" y="75"/>
<text fill="#000000ff" x="187.5" y="112.5">
3
</text>
</g>
<g>
<rect class="piece" fill="#8eb4ffff" x="225" y="75"/>
<text fill="#000000ff" x="262.5" y="112.5">
19
</text>
</g>
<g>
<rect class="piece" fill="#ffbd55ff" x="300" y="75"/>
<text fill="#000000ff" x="337.5" y="112.5">
16
</text>
</g>
<g>
<rect class="piece" fill="#ffbd55ff" x="0" y="150"/>
<text fill="#000000ff" x="37.5" y="187.5">
21
</text>
</g>
<g>
<rect class="piece" fill="#77ffb3ff" x="75" y="150"/>
<text fill="#000000ff" x="112.5" y="187.5">
15
</text>
</g>
<g>
<rect class="piece" fill="#ad8dffff" x="150" y="150"/>
<text fill="#000000ff" x="187.5" y="187.5">
24
</text>
</g>
<g>
<rect class="piece" fill="#ff6868ff" x="300" y="150"/>
<text fill="#000000ff" x="337.5" y="187.5">
1
</text>
</g>
<g>
<rect class="piece" fill="#daff57ff" x="0" y="225"/>
<text fill="#000000ff" x="37.5" y="262.5">
7
</text>
</g>
<g>
<rect class="piece" fill="#daff57ff" x="75" y="225"/>
<text fill="#000000ff" x="112.5" y="262.5">
10
</text>
</g>
<g>
<rect class="piece" fill="#86f8ffff" x="150" y="225"/>
<text fill="#000000ff" x="187.5" y="262.5">
23
</text>
</g>
<g>
<rect class="piece" fill="#ffbd55ff" x="225" y="225"/>
<text fill="#000000ff" x="262.5" y="262.5">
11
</text>
</g>
<g>
<rect class="piece" fill="#86f8ffff" x="300" y="225"/>
<text fill="#000000ff" x="337.5" y="262.5">
18
</text>
</g>
<g>
<rect class="piece" fill="#8eb4ffff" x="0" y="300"/>
<text fill="#000000ff" x="37.5" y="337.5">
20
</text>
</g>
<g>
<rect class="piece" fill="#7fff65ff" x="75" y="300"/>
<text fill="#000000ff" x="112.5" y="337.5">
22
</text>
</g>
<g>
<rect class="piece" fill="#ffbd55ff" x="150" y="300"/>
<text fill="#000000ff" x="187.5" y="337.5">
6
</text>
</g>
<g>
<rect class="piece" fill="#77ffb3ff" x="225" y="300"/>
<text fill="#000000ff" x="262.5" y="337.5">
14
</text>
</g>
<g>
<rect class="piece" fill="#7fff65ff" x="300" y="300"/>
<text fill="#000000ff" x="337.5" y="337.5">
12
</text>
</g>
</svg>